solid Visualization Toolkit generated SLA File
 facet normal -0.70697996701527055 0.059770847708015017 -0.70470332197553343
  outer loop
   vertex -0.044326998293399811 -0.080849997699260712 -0.054676998406648636
   vertex -0.045322000980377197 -0.07201000303030014 -0.052928999066352844
   vertex -0.029819000512361526 -0.076500996947288513 -0.068862996995449066
  endloop
 endfacet
 facet normal -0.59619245509912289 -0.3569128110700191 -0.71914379770458792
  outer loop
   vertex -0.029819000512361526 -0.076500996947288513 -0.068862996995449066
   vertex -0.034255001693964005 -0.084908001124858856 -0.061012998223304749
   vertex -0.044326998293399811 -0.080849997699260712 -0.054676998406648636
  endloop
 endfacet
 facet normal -0.16943266164715565 0.17278932048629467 -0.97027646776217613
  outer loop
   vertex -0.059126999229192734 -0.078010998666286469 -0.051587000489234924
   vertex -0.045322000980377197 -0.07201000303030014 -0.052928999066352844
   vertex -0.044326998293399811 -0.080849997699260712 -0.054676998406648636
  endloop
 endfacet
 facet normal -0.0055382507365323913 0.7230144838244098 -0.69081067157282805
  outer loop
   vertex -0.059126999229192734 -0.078010998666286469 -0.051587000489234924
   vertex -0.044326998293399811 -0.080849997699260712 -0.054676998406648636
   vertex -0.062600001692771912 -0.083971001207828522 -0.05779699981212616
  endloop
 endfacet
 facet normal -0.040025667066104081 0.8138512269110143 -0.5796931312611443
  outer loop
   vertex -0.044326998293399811 -0.080849997699260712 -0.054676998406648636
   vertex -0.053206000477075577 -0.085033997893333435 -0.059937998652458191
   vertex -0.062600001692771912 -0.083971001207828522 -0.05779699981212616
  endloop
 endfacet
 facet normal -0.09379852441837358 0.76396627799109262 -0.63840219525732533
  outer loop
   vertex -0.0666470006108284 -0.09303399920463562 -0.065977998077869415
   vertex -0.044326998293399811 -0.080849997699260712 -0.054676998406648636
   vertex -0.034255001693964005 -0.084908001124858856 -0.061012998223304749
  endloop
 endfacet
 facet normal -0.038388375958974347 0.81264326060162884 -0.58149571244333842
  outer loop
   vertex -0.034255001693964005 -0.084908001124858856 -0.061012998223304749
   vertex -0.053206000477075577 -0.085033997893333435 -0.059937998652458191
   vertex -0.044326998293399811 -0.080849997699260712 -0.054676998406648636
  endloop
 endfacet
 facet normal -0.71429571781207957 -0.37950545105466499 -0.58801125851051628
  outer loop
   vertex -0.045322000980377197 -0.07201000303030014 -0.052928999066352844
   vertex -0.042966999113559723 -0.06222200021147728 -0.06210700049996376
   vertex -0.029819000512361526 -0.076500996947288513 -0.068862996995449066
  endloop
 endfacet
 facet normal -0.16033121298301356 -0.15915099451506762 -0.97414827572000573
  outer loop
   vertex -0.045322000980377197 -0.07201000303030014 -0.052928999066352844
   vertex -0.055024001747369766 -0.06866300106048584 -0.051878999918699265
   vertex -0.051217000931501389 -0.063677996397018433 -0.053320001810789108
  endloop
 endfacet
 facet normal -0.60782775659712751 -0.46040672752222123 -0.6469706821505764
  outer loop
   vertex -0.042966999113559723 -0.06222200021147728 -0.06210700049996376
   vertex -0.045322000980377197 -0.07201000303030014 -0.052928999066352844
   vertex -0.051217000931501389 -0.063677996397018433 -0.053320001810789108
  endloop
 endfacet
 facet normal -0.1027939757364833 0.014050045078512647 -0.99460343594096789
  outer loop
   vertex -0.045322000980377197 -0.07201000303030014 -0.052928999066352844
   vertex -0.059126999229192734 -0.078010998666286469 -0.051587000489234924
   vertex -0.055024001747369766 -0.06866300106048584 -0.051878999918699265
  endloop
 endfacet
 facet normal -0.75196176867691067 -0.47724138232327545 -0.45474626050849665
  outer loop
   vertex -0.029819000512361526 -0.076500996947288513 -0.068862996995449066
   vertex -0.042966999113559723 -0.06222200021147728 -0.06210700049996376
   vertex -0.03528200089931488 -0.057528000324964523 -0.079741001129150391
  endloop
 endfacet
 facet normal -0.96497155893253683 -0.15759170315464102 0.20974924445186721
  outer loop
   vertex -0.03528200089931488 -0.057528000324964523 -0.079741001129150391
   vertex -0.038810998201370239 -0.055470999330282211 -0.094430997967720032
   vertex -0.029819000512361526 -0.076500996947288513 -0.068862996995449066
  endloop
 endfacet
 facet normal 0.71484041307745194 -0.39549636276769096 -0.57670253239324754
  outer loop
   vertex -0.038810998201370239 -0.055470999330282211 -0.094430997967720032
   vertex -0.031417999416589737 -0.051766000688076019 -0.087807998061180115
   vertex -0.029819000512361526 -0.076500996947288513 -0.068862996995449066
  endloop
 endfacet
 facet normal 0.91042911493189571 -0.21282828072786988 -0.35471530782691646
  outer loop
   vertex -0.025296999141573906 -0.071681998670101166 -0.060148000717163086
   vertex -0.029819000512361526 -0.076500996947288513 -0.068862996995449066
   vertex -0.031417999416589737 -0.051766000688076019 -0.087807998061180115
  endloop
 endfacet
 facet normal 0.82534833152528864 -0.55092569527991542 -0.12361638212131947
  outer loop
   vertex -0.025296999141573906 -0.071681998670101166 -0.060148000717163086
   vertex -0.034255001693964005 -0.084908001124858856 -0.061012998223304749
   vertex -0.029819000512361526 -0.076500996947288513 -0.068862996995449066
  endloop
 endfacet
 facet normal 0.72949640814493488 -0.46104602352606394 -0.50524405458594235
  outer loop
   vertex -0.0075449999421834946 -0.088843002915382385 -0.018857000395655632
   vertex -0.034255001693964005 -0.084908001124858856 -0.061012998223304749
   vertex -0.025296999141573906 -0.071681998670101166 -0.060148000717163086
  endloop
 endfacet
 facet normal -0.3930945546604479 -0.904641576910582 0.16462165234573409
  outer loop
   vertex -0.034255001693964005 -0.084908001124858856 -0.061012998223304749
   vertex -0.0075449999421834946 -0.088843002915382385 -0.018857000395655632
   vertex -0.035677000880241394 -0.082370996475219727 -0.050466999411582947
  endloop
 endfacet
 facet normal 0.20583807568583237 -0.9539185060126435 0.21833499601428988
  outer loop
   vertex -0.0666470006108284 -0.09303399920463562 -0.065977998077869415
   vertex -0.034255001693964005 -0.084908001124858856 -0.061012998223304749
   vertex -0.061014000326395035 -0.087158001959323883 -0.045616000890731812
  endloop
 endfacet
 facet normal 0.22664274399960885 -0.93957187639518946 0.25658868969529885
  outer loop
   vertex -0.061014000326395035 -0.087158001959323883 -0.045616000890731812
   vertex -0.034255001693964005 -0.084908001124858856 -0.061012998223304749
   vertex -0.035677000880241394 -0.082370996475219727 -0.050466999411582947
  endloop
 endfacet
 facet normal -0.047292005338871672 0.65127087066169675 -0.75737026562876331
  outer loop
   vertex -0.053206000477075577 -0.085033997893333435 -0.059937998652458191
   vertex -0.034255001693964005 -0.084908001124858856 -0.061012998223304749
   vertex -0.0666470006108284 -0.09303399920463562 -0.065977998077869415
  endloop
 endfacet
 facet normal 0.56425829985066944 0.41490507029885199 -0.71376911791554609
  outer loop
   vertex -0.062600001692771912 -0.083971001207828522 -0.05779699981212616
   vertex -0.070804998278617859 -0.077243998646736145 -0.060373000800609589
   vertex -0.059126999229192734 -0.078010998666286469 -0.051587000489234924
  endloop
 endfacet
 facet normal 0.5983527374583627 0.18780597387217801 -0.77891136707202224
  outer loop
   vertex -0.059126999229192734 -0.078010998666286469 -0.051587000489234924
   vertex -0.070804998278617859 -0.077243998646736145 -0.060373000800609589
   vertex -0.062171999365091324 -0.069728001952171326 -0.05192900076508522
  endloop
 endfacet
 facet normal 0.012454861656570957 -0.03667978434710039 -0.99924945326047887
  outer loop
   vertex -0.059126999229192734 -0.078010998666286469 -0.051587000489234924
   vertex -0.062171999365091324 -0.069728001952171326 -0.05192900076508522
   vertex -0.055024001747369766 -0.06866300106048584 -0.051878999918699265
  endloop
 endfacet
 facet normal 0.55874538577255062 0.40419625941220771 -0.72417468732002976
  outer loop
   vertex -0.0666470006108284 -0.09303399920463562 -0.065977998077869415
   vertex -0.070804998278617859 -0.077243998646736145 -0.060373000800609589
   vertex -0.062600001692771912 -0.083971001207828522 -0.05779699981212616
  endloop
 endfacet
 facet normal -0.086207164477908993 0.68850580131890748 -0.72008894335553297
  outer loop
   vertex -0.053206000477075577 -0.085033997893333435 -0.059937998652458191
   vertex -0.0666470006108284 -0.09303399920463562 -0.065977998077869415
   vertex -0.062600001692771912 -0.083971001207828522 -0.05779699981212616
  endloop
 endfacet
 facet normal 0.58611534132713561 0.40370574243110308 -0.70248877584565528
  outer loop
   vertex -0.07809700071811676 -0.091477997601032257 -0.074637003242969513
   vertex -0.070804998278617859 -0.077243998646736145 -0.060373000800609589
   vertex -0.0666470006108284 -0.09303399920463562 -0.065977998077869415
  endloop
 endfacet
 facet normal 0.014826656489009368 -0.98053084623554054 -0.19580457052370276
  outer loop
   vertex -0.0666470006108284 -0.09303399920463562 -0.065977998077869415
   vertex -0.084540002048015594 -0.093540996313095093 -0.064793996512889862
   vertex -0.07809700071811676 -0.091477997601032257 -0.074637003242969513
  endloop
 endfacet
 facet normal 0.74170036089397862 -0.67063005313201429 -0.011657893715999484
  outer loop
   vertex -0.0666470006108284 -0.09303399920463562 -0.065977998077869415
   vertex -0.061014000326395035 -0.087158001959323883 -0.045616000890731812
   vertex -0.076816998422145844 -0.10465999692678452 -0.044220000505447388
  endloop
 endfacet
 facet normal -0.0063822673467459718 -0.88072589335996876 -0.4735833268061701
  outer loop
   vertex -0.084540002048015594 -0.093540996313095093 -0.064793996512889862
   vertex -0.0666470006108284 -0.09303399920463562 -0.065977998077869415
   vertex -0.076816998422145844 -0.10465999692678452 -0.044220000505447388
  endloop
 endfacet
 facet normal -0.58895330440582461 -0.67947969189736734 -0.43754011647907082
  outer loop
   vertex -0.03528200089931488 -0.057528000324964523 -0.079741001129150391
   vertex -0.042966999113559723 -0.06222200021147728 -0.06210700049996376
   vertex -0.04828299954533577 -0.054949000477790833 -0.066246002912521362
  endloop
 endfacet
 facet normal -0.56267625420035561 -0.54785838987077573 -0.61906915413971175
  outer loop
   vertex -0.042966999113559723 -0.06222200021147728 -0.06210700049996376
   vertex -0.051217000931501389 -0.063677996397018433 -0.053320001810789108
   vertex -0.050719000399112701 -0.058977998793125153 -0.057932000607252121
  endloop
 endfacet
 facet normal -0.54758545600686315 -0.67873264324440064 -0.48935893510206258
  outer loop
   vertex -0.04828299954533577 -0.054949000477790833 -0.066246002912521362
   vertex -0.042966999113559723 -0.06222200021147728 -0.06210700049996376
   vertex -0.050719000399112701 -0.058977998793125153 -0.057932000607252121
  endloop
 endfacet
 facet normal 0.068051658026524325 -0.32466962047386272 -0.9433761759665118
  outer loop
   vertex -0.055024001747369766 -0.06866300106048584 -0.051878999918699265
   vertex -0.06049099937081337 -0.061737000942230225 -0.054657001048326492
   vertex -0.051217000931501389 -0.063677996397018433 -0.053320001810789108
  endloop
 endfacet
 facet normal 0.056218863327388964 -0.33313724470579353 -0.94120083701408197
  outer loop
   vertex -0.062171999365091324 -0.069728001952171326 -0.05192900076508522
   vertex -0.06049099937081337 -0.061737000942230225 -0.054657001048326492
   vertex -0.055024001747369766 -0.06866300106048584 -0.051878999918699265
  endloop
 endfacet
 facet normal -0.042837133535830553 -0.69743437426538135 -0.71536722987811596
  outer loop
   vertex -0.051217000931501389 -0.063677996397018433 -0.053320001810789108
   vertex -0.06049099937081337 -0.061737000942230225 -0.054657001048326492
   vertex -0.050719000399112701 -0.058977998793125153 -0.057932000607252121
  endloop
 endfacet
 facet normal -0.47089340848278266 -0.88212882441272245 -0.010398797415833249
  outer loop
   vertex -0.038810998201370239 -0.055470999330282211 -0.094430997967720032
   vertex -0.03528200089931488 -0.057528000324964523 -0.079741001129150391
   vertex -0.051734000444412231 -0.048677001148462296 -0.085566997528076172
  endloop
 endfacet
 facet normal -0.40176490941439547 -0.88965118306764301 -0.21703854503194939
  outer loop
   vertex -0.051734000444412231 -0.048677001148462296 -0.085566997528076172
   vertex -0.03528200089931488 -0.057528000324964523 -0.079741001129150391
   vertex -0.04828299954533577 -0.054949000477790833 -0.066246002912521362
  endloop
 endfacet
 facet normal -0.20457025027378917 -0.8978382532429241 0.38991984268130547
  outer loop
   vertex -0.051734000444412231 -0.048677001148462296 -0.085566997528076172
   vertex -0.062715999782085419 -0.052388999611139297 -0.099876001477241516
   vertex -0.038810998201370239 -0.055470999330282211 -0.094430997967720032
  endloop
 endfacet
 facet normal 0.24260390674321841 0.70575738759256779 -0.66561990226513057
  outer loop
   vertex -0.038810998201370239 -0.055470999330282211 -0.094430997967720032
   vertex -0.062715999782085419 -0.052388999611139297 -0.099876001477241516
   vertex -0.031417999416589737 -0.051766000688076019 -0.087807998061180115
  endloop
 endfacet
 facet normal -0.034590700914254854 -0.45851553432877379 -0.88801294370603612
  outer loop
   vertex -0.031417999416589737 -0.051766000688076019 -0.087807998061180115
   vertex -0.052850998938083649 -0.035891000181436539 -0.095169998705387115
   vertex -0.022260000929236412 -0.035254999995231628 -0.096689999103546143
  endloop
 endfacet
 facet normal 0.35839288108982498 0.05158975186626235 -0.93214432374311662
  outer loop
   vertex -0.031417999416589737 -0.051766000688076019 -0.087807998061180115
   vertex -0.062715999782085419 -0.052388999611139297 -0.099876001477241516
   vertex -0.052850998938083649 -0.035891000181436539 -0.095169998705387115
  endloop
 endfacet
 facet normal 0.96916212843922334 0.24326838780898308 -0.039309798930706907
  outer loop
   vertex -0.031417999416589737 -0.051766000688076019 -0.087807998061180115
   vertex -0.029868999496102333 -0.05404600128531456 -0.063727997243404388
   vertex -0.025296999141573906 -0.071681998670101166 -0.060148000717163086
  endloop
 endfacet
 facet normal 0.890889488592703 0.45399426357843392 -0.014322281693481967
  outer loop
   vertex -0.034961000084877014 -0.044477999210357666 -0.077174998819828033
   vertex -0.029868999496102333 -0.05404600128531456 -0.063727997243404388
   vertex -0.031417999416589737 -0.051766000688076019 -0.087807998061180115
  endloop
 endfacet
 facet normal 0.86165788996108139 -0.2363368013711297 0.44909976284282321
  outer loop
   vertex -0.022260000929236412 -0.035254999995231628 -0.096689999103546143
   vertex -0.034961000084877014 -0.044477999210357666 -0.077174998819828033
   vertex -0.031417999416589737 -0.051766000688076019 -0.087807998061180115
  endloop
 endfacet
 facet normal 0.92905345595054911 0.16799379532928893 -0.32960242826350961
  outer loop
   vertex -0.025296999141573906 -0.071681998670101166 -0.060148000717163086
   vertex -0.015992000699043274 -0.078452996909618378 -0.037370998412370682
   vertex -0.0075449999421834946 -0.088843002915382385 -0.018857000395655632
  endloop
 endfacet
 facet normal 0.96909529481798773 0.23823626592742908 -0.064013991897029582
  outer loop
   vertex -0.025296999141573906 -0.071681998670101166 -0.060148000717163086
   vertex -0.029868999496102333 -0.05404600128531456 -0.063727997243404388
   vertex -0.025342000648379326 -0.066449001431465149 -0.041354000568389893
  endloop
 endfacet
 facet normal 0.80373725098605209 0.57367468591345794 -0.15780933470323999
  outer loop
   vertex -0.015992000699043274 -0.078452996909618378 -0.037370998412370682
   vertex -0.025296999141573906 -0.071681998670101166 -0.060148000717163086
   vertex -0.025342000648379326 -0.066449001431465149 -0.041354000568389893
  endloop
 endfacet
 facet normal 0.63431075567406414 -0.77067522051268056 -0.060906237151286846
  outer loop
   vertex -0.027254000306129456 -0.10660099983215332 0.00058300001546740532
   vertex -0.0075449999421834946 -0.088843002915382385 -0.018857000395655632
   vertex 9.9999997473787516e-06 -0.083725996315479279 -0.0049230000004172325
  endloop
 endfacet
 facet normal 0.33638225739503913 -0.74740505973566529 -0.57291592192165885
  outer loop
   vertex -0.0075449999421834946 -0.088843002915382385 -0.018857000395655632
   vertex -0.015992000699043274 -0.078452996909618378 -0.037370998412370682
   vertex 0 -0.079469002783298492 -0.026655999943614006
  endloop
 endfacet
 facet normal -0.51915842546121271 -0.85037838401745058 0.085622037283071106
  outer loop
   vertex -0.033728998154401779 -0.075291000306606293 -0.043024998158216476
   vertex -0.0075449999421834946 -0.088843002915382385 -0.018857000395655632
   vertex -0.036187998950481415 -0.073045998811721802 -0.035638000816106796
  endloop
 endfacet
 facet normal -0.72515778719713586 -0.39404310648279245 0.56469125537832088
  outer loop
   vertex -0.035677000880241394 -0.082370996475219727 -0.050466999411582947
   vertex -0.0075449999421834946 -0.088843002915382385 -0.018857000395655632
   vertex -0.033728998154401779 -0.075291000306606293 -0.043024998158216476
  endloop
 endfacet
 facet normal 0.71406256945771274 -0.6869640532384691 -0.13488897826591723
  outer loop
   vertex 9.9999997473787516e-06 -0.083725996315479279 -0.0049230000004172325
   vertex -0.0075449999421834946 -0.088843002915382385 -0.018857000395655632
   vertex 0 -0.079469002783298492 -0.026655999943614006
  endloop
 endfacet
 facet normal 0.20793618183278903 -0.63270026017263448 -0.74595772337464405
  outer loop
   vertex -0.0075449999421834946 -0.088843002915382385 -0.018857000395655632
   vertex -0.025952000170946121 -0.11044000089168549 -0.0056699998676776886
   vertex -0.037578999996185303 -0.099973998963832855 -0.017788000404834747
  endloop
 endfacet
 facet normal 0.80031974185475596 -0.42211726504769487 0.4257996305143899
  outer loop
   vertex -0.0075449999421834946 -0.088843002915382385 -0.018857000395655632
   vertex -0.027254000306129456 -0.10660099983215332 0.00058300001546740532
   vertex -0.025952000170946121 -0.11044000089168549 -0.0056699998676776886
  endloop
 endfacet
 facet normal 0.17487225268727496 -0.55025869805475369 -0.81647722592560112
  outer loop
   vertex -0.0075449999421834946 -0.088843002915382385 -0.018857000395655632
   vertex -0.037578999996185303 -0.099973998963832855 -0.017788000404834747
   vertex -0.036187998950481415 -0.073045998811721802 -0.035638000816106796
  endloop
 endfacet
 facet normal 0.17376577576566959 0.075309638845027962 0.98190320982751977
  outer loop
   vertex -0.046114001423120499 -0.064378000795841217 -0.05000000074505806
   vertex -0.061014000326395035 -0.087158001959323883 -0.045616000890731812
   vertex -0.035677000880241394 -0.082370996475219727 -0.050466999411582947
  endloop
 endfacet
 facet normal -0.69708112937364441 -0.41944087538002711 0.58150430018324117
  outer loop
   vertex -0.033728998154401779 -0.075291000306606293 -0.043024998158216476
   vertex -0.046114001423120499 -0.064378000795841217 -0.05000000074505806
   vertex -0.035677000880241394 -0.082370996475219727 -0.050466999411582947
  endloop
 endfacet
 facet normal -0.099311021188894871 -0.48244818879673274 0.87027643090984097
  outer loop
   vertex -0.10806000232696533 -0.072227999567985535 -0.042707998305559158
   vertex -0.10851199924945831 -0.088165998458862305 -0.051594998687505722
   vertex -0.061014000326395035 -0.087158001959323883 -0.045616000890731812
  endloop
 endfacet
 facet normal 0.17178026645743835 0.36291165973385098 0.91585297252617615
  outer loop
   vertex -0.10806000232696533 -0.072227999567985535 -0.042707998305559158
   vertex -0.061014000326395035 -0.087158001959323883 -0.045616000890731812
   vertex -0.077587999403476715 -0.043166998773813248 -0.059939000755548477
  endloop
 endfacet
 facet normal -0.12657997431848045 0.19191811162798864 0.97321372191861322
  outer loop
   vertex -0.10851199924945831 -0.088165998458862305 -0.051594998687505722
   vertex -0.076816998422145844 -0.10465999692678452 -0.044220000505447388
   vertex -0.061014000326395035 -0.087158001959323883 -0.045616000890731812
  endloop
 endfacet
 facet normal -0.23094223553522525 0.32738410067752544 0.91623432290520557
  outer loop
   vertex -0.047115001827478409 -0.040844999253749847 -0.058660998940467834
   vertex -0.061014000326395035 -0.087158001959323883 -0.045616000890731812
   vertex -0.046114001423120499 -0.064378000795841217 -0.05000000074505806
  endloop
 endfacet
 facet normal -0.062009899263940169 0.28779698360463946 0.95568178209137533
  outer loop
   vertex -0.077587999403476715 -0.043166998773813248 -0.059939000755548477
   vertex -0.061014000326395035 -0.087158001959323883 -0.045616000890731812
   vertex -0.047115001827478409 -0.040844999253749847 -0.058660998940467834
  endloop
 endfacet
 facet normal 0.87939992358057073 0.12950651737418623 -0.45813080704542869
  outer loop
   vertex -0.070804998278617859 -0.077243998646736145 -0.060373000800609589
   vertex -0.075574003159999847 -0.066825002431869507 -0.066582001745700836
   vertex -0.069459997117519379 -0.066046997904777527 -0.054625999182462692
  endloop
 endfacet
 facet normal 0.47695682084355401 0.35532040350047861 -0.80390273162060277
  outer loop
   vertex -0.070804998278617859 -0.077243998646736145 -0.060373000800609589
   vertex -0.069459997117519379 -0.066046997904777527 -0.054625999182462692
   vertex -0.062171999365091324 -0.069728001952171326 -0.05192900076508522
  endloop
 endfacet
 facet normal 0.87485233735348089 0.035893975083425171 -0.48305797827989733
  outer loop
   vertex -0.07809700071811676 -0.091477997601032257 -0.074637003242969513
   vertex -0.084703996777534485 -0.074215002357959747 -0.08532000333070755
   vertex -0.070804998278617859 -0.077243998646736145 -0.060373000800609589
  endloop
 endfacet
 facet normal 0.93020330643399896 0.32993950325609844 -0.16081583532219357
  outer loop
   vertex -0.070804998278617859 -0.077243998646736145 -0.060373000800609589
   vertex -0.079861000180244446 -0.062775999307632446 -0.083071999251842499
   vertex -0.075574003159999847 -0.066825002431869507 -0.066582001745700836
  endloop
 endfacet
 facet normal 0.83124221531305009 -0.25483456080509037 -0.49406044782063829
  outer loop
   vertex -0.084703996777534485 -0.074215002357959747 -0.08532000333070755
   vertex -0.079861000180244446 -0.062775999307632446 -0.083071999251842499
   vertex -0.070804998278617859 -0.077243998646736145 -0.060373000800609589
  endloop
 endfacet
 facet normal 0.16477580042919593 -0.34952866829986456 -0.92232241956348504
  outer loop
   vertex -0.069459997117519379 -0.066046997904777527 -0.054625999182462692
   vertex -0.06049099937081337 -0.061737000942230225 -0.054657001048326492
   vertex -0.062171999365091324 -0.069728001952171326 -0.05192900076508522
  endloop
 endfacet
 facet normal -0.78043779319419315 -0.51662383213961638 -0.35216000201549769
  outer loop
   vertex -0.07809700071811676 -0.091477997601032257 -0.074637003242969513
   vertex -0.089841000735759735 -0.078409001231193542 -0.067782998085021973
   vertex -0.084703996777534485 -0.074215002357959747 -0.08532000333070755
  endloop
 endfacet
 facet normal -0.73981204659727673 -0.37014901406659773 -0.56184325491641729
  outer loop
   vertex -0.07809700071811676 -0.091477997601032257 -0.074637003242969513
   vertex -0.084540002048015594 -0.093540996313095093 -0.064793996512889862
   vertex -0.089841000735759735 -0.078409001231193542 -0.067782998085021973
  endloop
 endfacet
 facet normal -0.19820969837711502 0.1886997473309473 -0.96182395521555286
  outer loop
   vertex -0.084540002048015594 -0.093540996313095093 -0.064793996512889862
   vertex -0.09270700067281723 -0.10193099826574326 -0.064756996929645538
   vertex -0.094824999570846558 -0.075459003448486328 -0.059126999229192734
  endloop
 endfacet
 facet normal -0.85377016959880503 -0.37120427130949518 -0.36508065747833629
  outer loop
   vertex -0.084540002048015594 -0.093540996313095093 -0.064793996512889862
   vertex -0.094824999570846558 -0.075459003448486328 -0.059126999229192734
   vertex -0.089841000735759735 -0.078409001231193542 -0.067782998085021973
  endloop
 endfacet
 facet normal 0.60064408980736217 -0.58707266456672358 -0.54274521084760641
  outer loop
   vertex -0.084540002048015594 -0.093540996313095093 -0.064793996512889862
   vertex -0.076816998422145844 -0.10465999692678452 -0.044220000505447388
   vertex -0.09270700067281723 -0.10193099826574326 -0.064756996929645538
  endloop
 endfacet
 facet normal 0.032834670862553532 0.61862195396803676 0.7850023964664794
  outer loop
   vertex -0.071466997265815735 -0.11639499664306641 -0.035195998847484589
   vertex -0.076816998422145844 -0.10465999692678452 -0.044220000505447388
   vertex -0.11427000164985657 -0.1033179983496666 -0.043710999190807343
  endloop
 endfacet
 facet normal 0.028338658852437647 0.45290013126334461 0.89111076276526391
  outer loop
   vertex -0.10851199924945831 -0.088165998458862305 -0.051594998687505722
   vertex -0.11427000164985657 -0.1033179983496666 -0.043710999190807343
   vertex -0.076816998422145844 -0.10465999692678452 -0.044220000505447388
  endloop
 endfacet
 facet normal 0.71255253445970479 -0.30867939868149497 -0.63006818239352624
  outer loop
   vertex -0.097672000527381897 -0.11772800236940384 -0.061402998864650726
   vertex -0.076816998422145844 -0.10465999692678452 -0.044220000505447388
   vertex -0.088941000401973724 -0.13081599771976471 -0.045116998255252838
  endloop
 endfacet
 facet normal 0.63370999857388643 -0.26886641738595418 -0.72534301355257214
  outer loop
   vertex -0.088941000401973724 -0.13081599771976471 -0.045116998255252838
   vertex -0.076816998422145844 -0.10465999692678452 -0.044220000505447388
   vertex -0.071466997265815735 -0.11639499664306641 -0.035195998847484589
  endloop
 endfacet
 facet normal 0.71671654644564031 -0.35296190590917764 -0.6014443324431572
  outer loop
   vertex -0.09270700067281723 -0.10193099826574326 -0.064756996929645538
   vertex -0.076816998422145844 -0.10465999692678452 -0.044220000505447388
   vertex -0.097672000527381897 -0.11772800236940384 -0.061402998864650726
  endloop
 endfacet
 facet normal -0.17388224504934519 -0.94535011645624267 -0.27582262810140823
  outer loop
   vertex -0.051734000444412231 -0.048677001148462296 -0.085566997528076172
   vertex -0.04828299954533577 -0.054949000477790833 -0.066246002912521362
   vertex -0.06088000163435936 -0.05064300075173378 -0.073063001036643982
  endloop
 endfacet
 facet normal -0.31010896524866749 -0.81670812007670934 -0.48664183572024305
  outer loop
   vertex -0.04828299954533577 -0.054949000477790833 -0.066246002912521362
   vertex -0.050719000399112701 -0.058977998793125153 -0.057932000607252121
   vertex -0.056570000946521759 -0.05496399849653244 -0.060940001159906387
  endloop
 endfacet
 facet normal -0.17437216034623768 -0.94549664977497094 -0.27500988156881179
  outer loop
   vertex -0.06088000163435936 -0.05064300075173378 -0.073063001036643982
   vertex -0.04828299954533577 -0.054949000477790833 -0.066246002912521362
   vertex -0.056570000946521759 -0.05496399849653244 -0.060940001159906387
  endloop
 endfacet
 facet normal -0.065672320811282978 -0.65792249847841688 -0.75021672353739055
  outer loop
   vertex -0.050719000399112701 -0.058977998793125153 -0.057932000607252121
   vertex -0.06049099937081337 -0.061737000942230225 -0.054657001048326492
   vertex -0.056570000946521759 -0.05496399849653244 -0.060940001159906387
  endloop
 endfacet
 facet normal 0.2485092279147984 -0.59759860839515022 -0.76231165994320893
  outer loop
   vertex -0.070113003253936768 -0.060373000800609589 -0.058862999081611633
   vertex -0.06409899890422821 -0.055427998304367065 -0.06077900156378746
   vertex -0.06049099937081337 -0.061737000942230225 -0.054657001048326492
  endloop
 endfacet
 facet normal 0.02690645502870944 -0.68817116732214645 -0.7250492998026149
  outer loop
   vertex -0.056570000946521759 -0.05496399849653244 -0.060940001159906387
   vertex -0.06049099937081337 -0.061737000942230225 -0.054657001048326492
   vertex -0.06409899890422821 -0.055427998304367065 -0.06077900156378746
  endloop
 endfacet
 facet normal 0.26502208756434942 -0.5571651749337273 -0.78697538776260556
  outer loop
   vertex -0.070113003253936768 -0.060373000800609589 -0.058862999081611633
   vertex -0.06049099937081337 -0.061737000942230225 -0.054657001048326492
   vertex -0.069459997117519379 -0.066046997904777527 -0.054625999182462692
  endloop
 endfacet
 facet normal 0.3835915627267662 -0.91328735803581451 0.13698070906809939
  outer loop
   vertex -0.077803999185562134 -0.060867998749017715 -0.093842998147010803
   vertex -0.051734000444412231 -0.048677001148462296 -0.085566997528076172
   vertex -0.06088000163435936 -0.05064300075173378 -0.073063001036643982
  endloop
 endfacet
 facet normal 0.45080134151670392 -0.88500232423546188 -0.11640032897105831
  outer loop
   vertex -0.062715999782085419 -0.052388999611139297 -0.099876001477241516
   vertex -0.051734000444412231 -0.048677001148462296 -0.085566997528076172
   vertex -0.077803999185562134 -0.060867998749017715 -0.093842998147010803
  endloop
 endfacet
 facet normal -0.50489419478179332 0.33130317549065258 -0.79706966946776636
  outer loop
   vertex -0.062715999782085419 -0.052388999611139297 -0.099876001477241516
   vertex -0.077803999185562134 -0.060867998749017715 -0.093842998147010803
   vertex -0.079370997846126556 -0.04345100000500679 -0.085611000657081604
  endloop
 endfacet
 facet normal -0.41482617677259198 0.47024384050501067 -0.77896724804790884
  outer loop
   vertex -0.062715999782085419 -0.052388999611139297 -0.099876001477241516
   vertex -0.079370997846126556 -0.04345100000500679 -0.085611000657081604
   vertex -0.052850998938083649 -0.035891000181436539 -0.095169998705387115
  endloop
 endfacet
 facet normal -0.037214692651489911 -0.399322548258145 -0.91605489415398933
  outer loop
   vertex -0.022260000929236412 -0.035254999995231628 -0.096689999103546143
   vertex -0.052850998938083649 -0.035891000181436539 -0.095169998705387115
   vertex -0.020765999332070351 -0.012687999755144119 -0.10658799856901169
  endloop
 endfacet
 facet normal -0.28885971614007644 -0.070404872405466279 -0.9547791463647729
  outer loop
   vertex -0.020765999332070351 -0.012687999755144119 -0.10658799856901169
   vertex -0.052850998938083649 -0.035891000181436539 -0.095169998705387115
   vertex -0.058844998478889465 -0.015488999895751476 -0.094861000776290894
  endloop
 endfacet
 facet normal -0.31799064423401879 -0.079114717748000676 -0.94478717794818112
  outer loop
   vertex -0.058844998478889465 -0.015488999895751476 -0.094861000776290894
   vertex -0.052850998938083649 -0.035891000181436539 -0.095169998705387115
   vertex -0.079370997846126556 -0.04345100000500679 -0.085611000657081604
  endloop
 endfacet
 facet normal 0.71543915835774097 0.32425181514405138 0.61887605468636053
  outer loop
   vertex -0.034961000084877014 -0.044477999210357666 -0.077174998819828033
   vertex -0.022260000929236412 -0.035254999995231628 -0.096689999103546143
   vertex -0.030136000365018845 -0.023374000564217567 -0.093809999525547028
  endloop
 endfacet
 facet normal 0.65809836147245071 0.26546489029965348 0.7045813924916472
  outer loop
   vertex -0.020765999332070351 -0.012687999755144119 -0.10658799856901169
   vertex -0.030136000365018845 -0.023374000564217567 -0.093809999525547028
   vertex -0.022260000929236412 -0.035254999995231628 -0.096689999103546143
  endloop
 endfacet
 facet normal 0.63403191537712389 0.72300382634677973 0.27435195893437897
  outer loop
   vertex -0.047115001827478409 -0.040844999253749847 -0.058660998940467834
   vertex -0.029868999496102333 -0.05404600128531456 -0.063727997243404388
   vertex -0.034961000084877014 -0.044477999210357666 -0.077174998819828033
  endloop
 endfacet
 facet normal 0.63402803369213268 0.72358212114536924 0.27283212137000307
  outer loop
   vertex -0.025342000648379326 -0.066449001431465149 -0.041354000568389893
   vertex -0.029868999496102333 -0.05404600128531456 -0.063727997243404388
   vertex -0.047115001827478409 -0.040844999253749847 -0.058660998940467834
  endloop
 endfacet
 facet normal 0.83580543900732462 0.20906841959232697 0.50766097353936901
  outer loop
   vertex -0.047115001827478409 -0.040844999253749847 -0.058660998940467834
   vertex -0.034961000084877014 -0.044477999210357666 -0.077174998819828033
   vertex -0.030136000365018845 -0.023374000564217567 -0.093809999525547028
  endloop
 endfacet
 facet normal 0.55631323099290553 0.16294744941820929 -0.81483968837455034
  outer loop
   vertex 0 -0.079469002783298492 -0.026655999943614006
   vertex -0.015992000699043274 -0.078452996909618378 -0.037370998412370682
   vertex -0.025342000648379326 -0.066449001431465149 -0.041354000568389893
  endloop
 endfacet
 facet normal -0.051958354012455292 0.70137939768421387 0.71089188344814114
  outer loop
   vertex 0 -0.079469002783298492 -0.026655999943614006
   vertex -0.025342000648379326 -0.066449001431465149 -0.041354000568389893
   vertex -0.036187998950481415 -0.073045998811721802 -0.035638000816106796
  endloop
 endfacet
 facet normal -0.16770487225622172 0.78846589747595275 0.5917741159758213
  outer loop
   vertex -0.036187998950481415 -0.073045998811721802 -0.035638000816106796
   vertex -0.025342000648379326 -0.066449001431465149 -0.041354000568389893
   vertex -0.046114001423120499 -0.064378000795841217 -0.05000000074505806
  endloop
 endfacet
 facet normal -0.3383465837455934 0.3123084367184002 0.88768520863096234
  outer loop
   vertex -0.025342000648379326 -0.066449001431465149 -0.041354000568389893
   vertex -0.047115001827478409 -0.040844999253749847 -0.058660998940467834
   vertex -0.046114001423120499 -0.064378000795841217 -0.05000000074505806
  endloop
 endfacet
 facet normal 0.12625747884606431 0.087363126888777801 0.98814307319115025
  outer loop
   vertex 9.9999997473787516e-06 -0.083725996315479279 -0.0049230000004172325
   vertex -0.022293999791145325 -0.080640003085136414 -0.0023459999356418848
   vertex -0.027254000306129456 -0.10660099983215332 0.00058300001546740532
  endloop
 endfacet
 facet normal 0.0039879444831290049 0.11135854374632366 0.99377229335170003
  outer loop
   vertex -0.029246000573039055 -0.091679997742176056 -0.0010809999657794833
   vertex -0.027254000306129456 -0.10660099983215332 0.00058300001546740532
   vertex -0.022293999791145325 -0.080640003085136414 -0.0023459999356418848
  endloop
 endfacet
 facet normal -0.72677220403189713 0.40519679774585449 0.55463295839962801
  outer loop
   vertex -0.036187998950481415 -0.073045998811721802 -0.035638000816106796
   vertex -0.037578999996185303 -0.099973998963832855 -0.017788000404834747
   vertex -0.027254000306129456 -0.10660099983215332 0.00058300001546740532
  endloop
 endfacet
 facet normal -0.98400135697825686 -0.11631750739878566 0.13495023874555631
  outer loop
   vertex -0.036187998950481415 -0.073045998811721802 -0.035638000816106796
   vertex -0.027254000306129456 -0.10660099983215332 0.00058300001546740532
   vertex -0.029246000573039055 -0.091679997742176056 -0.0010809999657794833
  endloop
 endfacet
 facet normal 0.23371939167453404 -0.80614977214899042 0.54359708499900594
  outer loop
   vertex -0.027254000306129456 -0.10660099983215332 0.00058300001546740532
   vertex -0.044548999518156052 -0.1278270035982132 -0.023459000512957573
   vertex -0.025952000170946121 -0.11044000089168549 -0.0056699998676776886
  endloop
 endfacet
 facet normal -0.15459818194958247 -0.68281293009654287 0.71404895114470801
  outer loop
   vertex -0.044548999518156052 -0.1278270035982132 -0.023459000512957573
   vertex -0.027254000306129456 -0.10660099983215332 0.00058300001546740532
   vertex -0.079997003078460693 -0.1267939954996109 -0.030146000906825066
  endloop
 endfacet
 facet normal -0.51517184617015355 0.76868240213866268 0.37911124166393528
  outer loop
   vertex -0.03908199816942215 -0.10562200099229813 -0.017474999651312828
   vertex -0.079997003078460693 -0.1267939954996109 -0.030146000906825066
   vertex -0.027254000306129456 -0.10660099983215332 0.00058300001546740532
  endloop
 endfacet
 facet normal -0.80508042320533379 0.24419826476935036 0.5405670353019677
  outer loop
   vertex -0.03908199816942215 -0.10562200099229813 -0.017474999651312828
   vertex -0.027254000306129456 -0.10660099983215332 0.00058300001546740532
   vertex -0.037578999996185303 -0.099973998963832855 -0.017788000404834747
  endloop
 endfacet
 facet normal 0.15379584818662195 0.33542805113720087 0.92942716744823894
  outer loop
   vertex 9.9999997473787516e-06 -0.083725996315479279 -0.0049230000004172325
   vertex -0.0025150000583380461 -0.076525002717971802 -0.0071040000766515732
   vertex -0.022293999791145325 -0.080640003085136414 -0.0023459999356418848
  endloop
 endfacet
 facet normal 0.93490612439687992 0.34835759622873913 0.067805041958107118
  outer loop
   vertex -0.0025150000583380461 -0.076525002717971802 -0.0071040000766515732
   vertex 9.9999997473787516e-06 -0.083725996315479279 -0.0049230000004172325
   vertex 0 -0.079469002783298492 -0.026655999943614006
  endloop
 endfacet
 facet normal 0.20236258130962209 0.97189237499645154 -0.12031041978757846
  outer loop
   vertex -0.0025150000583380461 -0.076525002717971802 -0.0071040000766515732
   vertex 0 -0.079469002783298492 -0.026655999943614006
   vertex -0.036187998950481415 -0.073045998811721802 -0.035638000816106796
  endloop
 endfacet
 facet normal -0.66321196504182045 -0.74840183349452327 0.0066772035615807893
  outer loop
   vertex -0.036187998950481415 -0.073045998811721802 -0.035638000816106796
   vertex -0.046114001423120499 -0.064378000795841217 -0.05000000074505806
   vertex -0.033728998154401779 -0.075291000306606293 -0.043024998158216476
  endloop
 endfacet
 facet normal -0.74209974084382313 0.51628933542606725 0.42747315326794549
  outer loop
   vertex -0.029246000573039055 -0.091679997742176056 -0.0010809999657794833
   vertex -0.022293999791145325 -0.080640003085136414 -0.0023459999356418848
   vertex -0.036187998950481415 -0.073045998811721802 -0.035638000816106796
  endloop
 endfacet
 facet normal -0.13264629078971871 0.95290574796196426 0.27271889747646538
  outer loop
   vertex -0.022293999791145325 -0.080640003085136414 -0.0023459999356418848
   vertex -0.0025150000583380461 -0.076525002717971802 -0.0071040000766515732
   vertex -0.036187998950481415 -0.073045998811721802 -0.035638000816106796
  endloop
 endfacet
 facet normal 0.61168058582139861 -0.20511736615658005 -0.76405086678190348
  outer loop
   vertex -0.025952000170946121 -0.11044000089168549 -0.0056699998676776886
   vertex -0.03908199816942215 -0.10562200099229813 -0.017474999651312828
   vertex -0.037578999996185303 -0.099973998963832855 -0.017788000404834747
  endloop
 endfacet
 facet normal 0.67481235493134917 0.032543700146291557 -0.73727145151076834
  outer loop
   vertex -0.025952000170946121 -0.11044000089168549 -0.0056699998676776886
   vertex -0.044548999518156052 -0.1278270035982132 -0.023459000512957573
   vertex -0.03908199816942215 -0.10562200099229813 -0.017474999651312828
  endloop
 endfacet
 facet normal -0.76699256697845242 0.32894583496901381 -0.55092380585371536
  outer loop
   vertex -0.10131999850273132 -0.083183996379375458 -0.058632999658584595
   vertex -0.10851199924945831 -0.088165998458862305 -0.051594998687505722
   vertex -0.10806000232696533 -0.072227999567985535 -0.042707998305559158
  endloop
 endfacet
 facet normal -0.62893639620640895 0.49020673190147024 -0.60343712972054941
  outer loop
   vertex -0.10806000232696533 -0.072227999567985535 -0.042707998305559158
   vertex -0.094824999570846558 -0.075459003448486328 -0.059126999229192734
   vertex -0.10131999850273132 -0.083183996379375458 -0.058632999658584595
  endloop
 endfacet
 facet normal 0.2881564164421383 0.24649482586766752 0.92531409828430322
  outer loop
   vertex -0.086208999156951904 -0.025933999568223953 -0.061845000833272934
   vertex -0.10806000232696533 -0.072227999567985535 -0.042707998305559158
   vertex -0.077587999403476715 -0.043166998773813248 -0.059939000755548477
  endloop
 endfacet
 facet normal -0.76525820916900245 0.098219275640504505 -0.63618617337388406
  outer loop
   vertex -0.10806000232696533 -0.072227999567985535 -0.042707998305559158
   vertex -0.086208999156951904 -0.025933999568223953 -0.061845000833272934
   vertex -0.094824999570846558 -0.075459003448486328 -0.059126999229192734
  endloop
 endfacet
 facet normal -0.6583860474571297 0.7374206890192323 -0.15079303670985184
  outer loop
   vertex -0.11349199712276459 -0.094067998230457306 -0.058713998645544052
   vertex -0.10851199924945831 -0.088165998458862305 -0.051594998687505722
   vertex -0.10131999850273132 -0.083183996379375458 -0.058632999658584595
  endloop
 endfacet
 facet normal -0.86311984608744052 0.44863407336669597 0.23184391194163165
  outer loop
   vertex -0.11427000164985657 -0.1033179983496666 -0.043710999190807343
   vertex -0.10851199924945831 -0.088165998458862305 -0.051594998687505722
   vertex -0.11349199712276459 -0.094067998230457306 -0.058713998645544052
  endloop
 endfacet
 facet normal -0.048280929555339386 0.085910317364667615 0.9951323375368597
  outer loop
   vertex -0.077587999403476715 -0.043166998773813248 -0.059939000755548477
   vertex -0.047115001827478409 -0.040844999253749847 -0.058660998940467834
   vertex -0.086208999156951904 -0.025933999568223953 -0.061845000833272934
  endloop
 endfacet
 facet normal 0.69962760949543468 0.44489430977592764 0.55909772058264051
  outer loop
   vertex -0.030136000365018845 -0.023374000564217567 -0.093809999525547028
   vertex -0.076922997832298279 -0.00089800002751871943 -0.053148001432418823
   vertex -0.047115001827478409 -0.040844999253749847 -0.058660998940467834
  endloop
 endfacet
 facet normal -0.17770947836343529 -0.26345838476046535 0.94816086230090857
  outer loop
   vertex -0.047115001827478409 -0.040844999253749847 -0.058660998940467834
   vertex -0.076922997832298279 -0.00089800002751871943 -0.053148001432418823
   vertex -0.086208999156951904 -0.025933999568223953 -0.061845000833272934
  endloop
 endfacet
 facet normal 0.87384627496051503 -0.22231908237908787 -0.43239670829893251
  outer loop
   vertex -0.069459997117519379 -0.066046997904777527 -0.054625999182462692
   vertex -0.075574003159999847 -0.066825002431869507 -0.066582001745700836
   vertex -0.070113003253936768 -0.060373000800609589 -0.058862999081611633
  endloop
 endfacet
 facet normal 0.65628485173983053 -0.73879188767107284 0.15322121291858276
  outer loop
   vertex -0.070113003253936768 -0.060373000800609589 -0.058862999081611633
   vertex -0.075574003159999847 -0.066825002431869507 -0.066582001745700836
   vertex -0.06409899890422821 -0.055427998304367065 -0.06077900156378746
  endloop
 endfacet
 facet normal 0.74382114032599667 -0.57816698790912979 -0.33534019338012261
  outer loop
   vertex -0.079861000180244446 -0.062775999307632446 -0.083071999251842499
   vertex -0.06409899890422821 -0.055427998304367065 -0.06077900156378746
   vertex -0.075574003159999847 -0.066825002431869507 -0.066582001745700836
  endloop
 endfacet
 facet normal 0.90873675780986207 -0.40475238218684229 0.10184799516581754
  outer loop
   vertex -0.084703996777534485 -0.074215002357959747 -0.08532000333070755
   vertex -0.077803999185562134 -0.060867998749017715 -0.093842998147010803
   vertex -0.079861000180244446 -0.062775999307632446 -0.083071999251842499
  endloop
 endfacet
 facet normal -0.85025647449136221 0.11099120118645814 -0.5145336537532863
  outer loop
   vertex -0.077803999185562134 -0.060867998749017715 -0.093842998147010803
   vertex -0.084703996777534485 -0.074215002357959747 -0.08532000333070755
   vertex -0.08865000307559967 -0.062281001359224319 -0.076224997639656067
  endloop
 endfacet
 facet normal -0.9503316666255901 -0.086341238947369017 -0.2990232664286534
  outer loop
   vertex -0.084703996777534485 -0.074215002357959747 -0.08532000333070755
   vertex -0.089841000735759735 -0.078409001231193542 -0.067782998085021973
   vertex -0.08865000307559967 -0.062281001359224319 -0.076224997639656067
  endloop
 endfacet
 facet normal 0.58874288040138778 -0.79336660151753757 -0.15476193450971656
  outer loop
   vertex -0.06088000163435936 -0.05064300075173378 -0.073063001036643982
   vertex -0.06409899890422821 -0.055427998304367065 -0.06077900156378746
   vertex -0.079861000180244446 -0.062775999307632446 -0.083071999251842499
  endloop
 endfacet
 facet normal 0.55360497841392287 -0.83173916979522544 -0.041611071888009887
  outer loop
   vertex -0.079861000180244446 -0.062775999307632446 -0.083071999251842499
   vertex -0.077803999185562134 -0.060867998749017715 -0.093842998147010803
   vertex -0.06088000163435936 -0.05064300075173378 -0.073063001036643982
  endloop
 endfacet
 facet normal -0.87794883174626104 -0.16952754266831108 -0.44773458779975805
  outer loop
   vertex -0.094824999570846558 -0.075459003448486328 -0.059126999229192734
   vertex -0.08865000307559967 -0.062281001359224319 -0.076224997639656067
   vertex -0.089841000735759735 -0.078409001231193542 -0.067782998085021973
  endloop
 endfacet
 facet normal -0.28313621640201858 0.17778603413922806 -0.94245743088300515
  outer loop
   vertex -0.094824999570846558 -0.075459003448486328 -0.059126999229192734
   vertex -0.09270700067281723 -0.10193099826574326 -0.064756996929645538
   vertex -0.10131999850273132 -0.083183996379375458 -0.058632999658584595
  endloop
 endfacet
 facet normal -0.19330059554266618 0.22328557022566137 -0.95539438657124831
  outer loop
   vertex -0.09270700067281723 -0.10193099826574326 -0.064756996929645538
   vertex -0.11349199712276459 -0.094067998230457306 -0.058713998645544052
   vertex -0.10131999850273132 -0.083183996379375458 -0.058632999658584595
  endloop
 endfacet
 facet normal -0.31312727218377456 -0.10205776795127471 -0.94421158826586749
  outer loop
   vertex -0.09270700067281723 -0.10193099826574326 -0.064756996929645538
   vertex -0.097672000527381897 -0.11772800236940384 -0.061402998864650726
   vertex -0.11349199712276459 -0.094067998230457306 -0.058713998645544052
  endloop
 endfacet
 facet normal -0.96130626878544878 0.15473243991725893 -0.22792132333559847
  outer loop
   vertex -0.094824999570846558 -0.075459003448486328 -0.059126999229192734
   vertex -0.086208999156951904 -0.025933999568223953 -0.061845000833272934
   vertex -0.08865000307559967 -0.062281001359224319 -0.076224997639656067
  endloop
 endfacet
 facet normal -0.035869742314013221 0.46021185741260273 0.88708421690568284
  outer loop
   vertex -0.071466997265815735 -0.11639499664306641 -0.035195998847484589
   vertex -0.11427000164985657 -0.1033179983496666 -0.043710999190807343
   vertex -0.079997003078460693 -0.1267939954996109 -0.030146000906825066
  endloop
 endfacet
 facet normal -0.51359742428803845 0.6771765105896681 0.52692471878845626
  outer loop
   vertex -0.071466997265815735 -0.11639499664306641 -0.035195998847484589
   vertex -0.079997003078460693 -0.1267939954996109 -0.030146000906825066
   vertex -0.03908199816942215 -0.10562200099229813 -0.017474999651312828
  endloop
 endfacet
 facet normal 0.48164614569317332 0.019143168373210537 -0.8761566808759409
  outer loop
   vertex -0.064375996589660645 -0.13379199802875519 -0.031677998602390289
   vertex -0.088941000401973724 -0.13081599771976471 -0.045116998255252838
   vertex -0.071466997265815735 -0.11639499664306641 -0.035195998847484589
  endloop
 endfacet
 facet normal 0.38978445146768692 -0.027267095839660156 -0.92050235571589134
  outer loop
   vertex -0.071466997265815735 -0.11639499664306641 -0.035195998847484589
   vertex -0.044548999518156052 -0.1278270035982132 -0.023459000512957573
   vertex -0.064375996589660645 -0.13379199802875519 -0.031677998602390289
  endloop
 endfacet
 facet normal 0.44224468721032256 0.13025723148345389 -0.88738531105744023
  outer loop
   vertex -0.044548999518156052 -0.1278270035982132 -0.023459000512957573
   vertex -0.071466997265815735 -0.11639499664306641 -0.035195998847484589
   vertex -0.03908199816942215 -0.10562200099229813 -0.017474999651312828
  endloop
 endfacet
 facet normal -0.99709587924207121 -0.02980480873798139 -0.070081958980706988
  outer loop
   vertex -0.11349199712276459 -0.094067998230457306 -0.058713998645544052
   vertex -0.11344800144433975 -0.11564400047063828 -0.050163999199867249
   vertex -0.11427000164985657 -0.1033179983496666 -0.043710999190807343
  endloop
 endfacet
 facet normal -0.56508455096697197 -0.41192364871779041 0.71484149144091946
  outer loop
   vertex -0.11427000164985657 -0.1033179983496666 -0.043710999190807343
   vertex -0.11344800144433975 -0.11564400047063828 -0.050163999199867249
   vertex -0.079997003078460693 -0.1267939954996109 -0.030146000906825066
  endloop
 endfacet
 facet normal -0.41071614085728159 -0.80551419800443214 -0.42715234805930541
  outer loop
   vertex -0.097672000527381897 -0.11772800236940384 -0.061402998864650726
   vertex -0.088941000401973724 -0.13081599771976471 -0.045116998255252838
   vertex -0.11344800144433975 -0.11564400047063828 -0.050163999199867249
  endloop
 endfacet
 facet normal -0.57934548313693757 -0.30129882175375078 -0.75734921349310835
  outer loop
   vertex -0.097672000527381897 -0.11772800236940384 -0.061402998864650726
   vertex -0.11344800144433975 -0.11564400047063828 -0.050163999199867249
   vertex -0.11349199712276459 -0.094067998230457306 -0.058713998645544052
  endloop
 endfacet
 facet normal -0.52798351696257717 -0.68655612754192574 0.49987407369302816
  outer loop
   vertex -0.088941000401973724 -0.13081599771976471 -0.045116998255252838
   vertex -0.079997003078460693 -0.1267939954996109 -0.030146000906825066
   vertex -0.11344800144433975 -0.11564400047063828 -0.050163999199867249
  endloop
 endfacet
 facet normal -0.33480284405961852 -0.8405749157785366 0.42584136315475157
  outer loop
   vertex -0.064375996589660645 -0.13379199802875519 -0.031677998602390289
   vertex -0.079997003078460693 -0.1267939954996109 -0.030146000906825066
   vertex -0.088941000401973724 -0.13081599771976471 -0.045116998255252838
  endloop
 endfacet
 facet normal 0.050115249352303035 -0.9350033282506085 -0.35108010188935723
  outer loop
   vertex -0.06409899890422821 -0.055427998304367065 -0.06077900156378746
   vertex -0.06088000163435936 -0.05064300075173378 -0.073063001036643982
   vertex -0.056570000946521759 -0.05496399849653244 -0.060940001159906387
  endloop
 endfacet
 facet normal -0.8458766363032727 0.16381029196727723 -0.50760112726614015
  outer loop
   vertex -0.077803999185562134 -0.060867998749017715 -0.093842998147010803
   vertex -0.08865000307559967 -0.062281001359224319 -0.076224997639656067
   vertex -0.079370997846126556 -0.04345100000500679 -0.085611000657081604
  endloop
 endfacet
 facet normal -0.76521031687939078 0.393048458730406 -0.509868689008253
  outer loop
   vertex -0.086208999156951904 -0.025933999568223953 -0.061845000833272934
   vertex -0.058844998478889465 -0.015488999895751476 -0.094861000776290894
   vertex -0.079370997846126556 -0.04345100000500679 -0.085611000657081604
  endloop
 endfacet
 facet normal -0.87980772495226611 0.22478457978144378 -0.41882008047226826
  outer loop
   vertex -0.086208999156951904 -0.025933999568223953 -0.061845000833272934
   vertex -0.079370997846126556 -0.04345100000500679 -0.085611000657081604
   vertex -0.08865000307559967 -0.062281001359224319 -0.076224997639656067
  endloop
 endfacet
 facet normal 0.5947907653758383 0.34607631485378682 0.72557227739271235
  outer loop
   vertex -0.020765999332070351 -0.012687999755144119 -0.10658799856901169
   vertex -0.057750999927520752 0.022653000429272652 -0.093125998973846436
   vertex -0.030136000365018845 -0.023374000564217567 -0.093809999525547028
  endloop
 endfacet
 facet normal 0.6740010422479652 -0.42373757788626304 0.60511904625101642
  outer loop
   vertex -0.020765999332070351 -0.012687999755144119 -0.10658799856901169
   vertex -0.0071939998306334019 -0.014922999776899815 -0.12326999753713608
   vertex -0 0 -0.12083300203084946
  endloop
 endfacet
 facet normal 0.48118898738907862 0.17649219781234121 0.85866621135738341
  outer loop
   vertex -0 0 -0.12083300203084946
   vertex -0.057750999927520752 0.022653000429272652 -0.093125998973846436
   vertex -0.020765999332070351 -0.012687999755144119 -0.10658799856901169
  endloop
 endfacet
 facet normal 0.018826411101001826 -0.98883837005757969 0.14779798424513463
  outer loop
   vertex -0.025767000392079353 -0.013557000085711479 -0.11176499724388123
   vertex -0.0071939998306334019 -0.014922999776899815 -0.12326999753713608
   vertex -0.020765999332070351 -0.012687999755144119 -0.10658799856901169
  endloop
 endfacet
 facet normal 0.095823137742244324 -0.99263966208719601 0.07405692084233631
  outer loop
   vertex -0.025767000392079353 -0.013557000085711479 -0.11176499724388123
   vertex -0.020765999332070351 -0.012687999755144119 -0.10658799856901169
   vertex -0.058844998478889465 -0.015488999895751476 -0.094861000776290894
  endloop
 endfacet
 facet normal -0.41550319189580731 -0.32366949003766987 -0.85005597388827914
  outer loop
   vertex -0.050795998424291611 0.037340998649597168 -0.11891099810600281
   vertex -0.025767000392079353 -0.013557000085711479 -0.11176499724388123
   vertex -0.058844998478889465 -0.015488999895751476 -0.094861000776290894
  endloop
 endfacet
 facet normal -0.86363459381535468 -0.093895374152035554 -0.49529682724426644
  outer loop
   vertex -0.075179003179073334 0.0154600003734231 -0.07224699854850769
   vertex -0.050795998424291611 0.037340998649597168 -0.11891099810600281
   vertex -0.058844998478889465 -0.015488999895751476 -0.094861000776290894
  endloop
 endfacet
 facet normal -0.66239743770753923 0.18149385025922915 -0.72683534368972935
  outer loop
   vertex -0.075179003179073334 0.0154600003734231 -0.07224699854850769
   vertex -0.058844998478889465 -0.015488999895751476 -0.094861000776290894
   vertex -0.094028003513813019 -0.020261999219655991 -0.063988998532295227
  endloop
 endfacet
 facet normal -0.38470709290592631 -0.73925596457313592 -0.55272151352278065
  outer loop
   vertex -0.086208999156951904 -0.025933999568223953 -0.061845000833272934
   vertex -0.094028003513813019 -0.020261999219655991 -0.063988998532295227
   vertex -0.058844998478889465 -0.015488999895751476 -0.094861000776290894
  endloop
 endfacet
 facet normal 0.70232894633568277 0.41276021905648963 0.57996814800767138
  outer loop
   vertex -0.030136000365018845 -0.023374000564217567 -0.093809999525547028
   vertex -0.057750999927520752 0.022653000429272652 -0.093125998973846436
   vertex -0.076922997832298279 -0.00089800002751871943 -0.053148001432418823
  endloop
 endfacet
 facet normal -0.16963087638831784 -0.55668171086564122 0.81322250249451034
  outer loop
   vertex -0.064375996589660645 -0.13379199802875519 -0.031677998602390289
   vertex -0.044548999518156052 -0.1278270035982132 -0.023459000512957573
   vertex -0.079997003078460693 -0.1267939954996109 -0.030146000906825066
  endloop
 endfacet
 facet normal -0.37703477759383519 -0.17603377363397643 0.90931671436576444
  outer loop
   vertex -0.086208999156951904 -0.025933999568223953 -0.061845000833272934
   vertex -0.076922997832298279 -0.00089800002751871943 -0.053148001432418823
   vertex -0.094028003513813019 -0.020261999219655991 -0.063988998532295227
  endloop
 endfacet
 facet normal 0.52666888116432331 0.099188161012474324 0.84426393878222905
  outer loop
   vertex -0.076922997832298279 -0.00089800002751871943 -0.053148001432418823
   vertex -0.091164000332355499 0.0096209999173879623 -0.045499999076128006
   vertex -0.095802001655101776 -0.005518999882042408 -0.040828000754117966
  endloop
 endfacet
 facet normal 0.5014828001518491 -0.70251268808808953 0.50496626048391291
  outer loop
   vertex -0.11069200187921524 -0.024093000218272209 -0.051881000399589539
   vertex -0.076922997832298279 -0.00089800002751871943 -0.053148001432418823
   vertex -0.095802001655101776 -0.005518999882042408 -0.040828000754117966
  endloop
 endfacet
 facet normal 0.51017036555029227 -0.71677861942284071 0.47534683006470924
  outer loop
   vertex -0.094028003513813019 -0.020261999219655991 -0.063988998532295227
   vertex -0.076922997832298279 -0.00089800002751871943 -0.053148001432418823
   vertex -0.11069200187921524 -0.024093000218272209 -0.051881000399589539
  endloop
 endfacet
 facet normal 0.84587512985204616 0.16974750907974423 0.50564913513127474
  outer loop
   vertex -0.080792002379894257 0.031718000769615173 -0.057624999433755875
   vertex -0.076922997832298279 -0.00089800002751871943 -0.053148001432418823
   vertex -0.057750999927520752 0.022653000429272652 -0.093125998973846436
  endloop
 endfacet
 facet normal 0.56420527673478904 0.17760431353974809 0.80630584365778657
  outer loop
   vertex -0.076922997832298279 -0.00089800002751871943 -0.053148001432418823
   vertex -0.080792002379894257 0.031718000769615173 -0.057624999433755875
   vertex -0.091164000332355499 0.0096209999173879623 -0.045499999076128006
  endloop
 endfacet
 facet normal 0.84636379222972435 0.11239689612222913 0.5206104771752188
  outer loop
   vertex -0.080792002379894257 0.031718000769615173 -0.057624999433755875
   vertex -0.057750999927520752 0.022653000429272652 -0.093125998973846436
   vertex -0.075767002999782562 0.081004999577999115 -0.076434999704360962
  endloop
 endfacet
 facet normal 0.52859781170899245 0.30631454874121167 0.79167907051148734
  outer loop
   vertex -0.032203000038862228 0.042817000299692154 -0.11798600107431412
   vertex -0.057750999927520752 0.022653000429272652 -0.093125998973846436
   vertex -0.011672999709844589 0.020719999447464943 -0.1231440007686615
  endloop
 endfacet
 facet normal 0.69398122269560969 0.0083316458015521115 0.71994489110218995
  outer loop
   vertex -0.075767002999782562 0.081004999577999115 -0.076434999704360962
   vertex -0.057750999927520752 0.022653000429272652 -0.093125998973846436
   vertex -0.032203000038862228 0.042817000299692154 -0.11798600107431412
  endloop
 endfacet
 facet normal 0.51665848866373298 0.37681844220800942 0.76881198462539346
  outer loop
   vertex -0.057750999927520752 0.022653000429272652 -0.093125998973846436
   vertex -0 0 -0.12083300203084946
   vertex -0.011672999709844589 0.020719999447464943 -0.1231440007686615
  endloop
 endfacet
 facet normal 0.72098049353515414 -0.24149807934082801 -0.64951197496004387
  outer loop
   vertex -0.0037950000260025263 0.011366999708116055 -0.12927199900150299
   vertex -0 0 -0.12083300203084946
   vertex -0.0071939998306334019 -0.014922999776899815 -0.12326999753713608
  endloop
 endfacet
 facet normal -0.49604666207383108 -0.44002119945217194 -0.74854462330450444
  outer loop
   vertex -0.025767000392079353 -0.013557000085711479 -0.11176499724388123
   vertex -0.022141000255942345 0.01706399954855442 -0.1321679949760437
   vertex -0.0071939998306334019 -0.014922999776899815 -0.12326999753713608
  endloop
 endfacet
 facet normal 0.081044100131685587 -0.23178833399037271 -0.96938435208116114
  outer loop
   vertex -0.0071939998306334019 -0.014922999776899815 -0.12326999753713608
   vertex -0.022141000255942345 0.01706399954855442 -0.1321679949760437
   vertex -0.0037950000260025263 0.011366999708116055 -0.12927199900150299
  endloop
 endfacet
 facet normal 0.81728908959998059 0.49359688521034473 0.29732248305750536
  outer loop
   vertex -0.011672999709844589 0.020719999447464943 -0.1231440007686615
   vertex -0 0 -0.12083300203084946
   vertex -0.0037950000260025263 0.011366999708116055 -0.12927199900150299
  endloop
 endfacet
 facet normal -0.60033967949995926 -0.39300611465800084 -0.69651881744810651
  outer loop
   vertex -0.022141000255942345 0.01706399954855442 -0.1321679949760437
   vertex -0.025767000392079353 -0.013557000085711479 -0.11176499724388123
   vertex -0.050795998424291611 0.037340998649597168 -0.11891099810600281
  endloop
 endfacet
 facet normal -0.63852673111397673 -0.5512214483326946 -0.53706473404134969
  outer loop
   vertex -0.022141000255942345 0.01706399954855442 -0.1321679949760437
   vertex -0.050795998424291611 0.037340998649597168 -0.11891099810600281
   vertex -0.049975000321865082 0.045189999043941498 -0.12794299423694611
  endloop
 endfacet
 facet normal -0.82948779133434203 -0.19323195047247607 -0.52403379408572281
  outer loop
   vertex -0.050795998424291611 0.037340998649597168 -0.11891099810600281
   vertex -0.075179003179073334 0.0154600003734231 -0.07224699854850769
   vertex -0.07405400276184082 0.072924003005027771 -0.095216996967792511
  endloop
 endfacet
 facet normal -0.87192192965526105 -0.32757832813015436 -0.36392937161721201
  outer loop
   vertex -0.050795998424291611 0.037340998649597168 -0.11891099810600281
   vertex -0.07405400276184082 0.072924003005027771 -0.095216996967792511
   vertex -0.049975000321865082 0.045189999043941498 -0.12794299423694611
  endloop
 endfacet
 facet normal -0.31313064435671878 0.083407666146925338 -0.94604035896607985
  outer loop
   vertex -0.075179003179073334 0.0154600003734231 -0.07224699854850769
   vertex -0.12558099627494812 0.031049000099301338 -0.054189998656511307
   vertex -0.099991999566555023 0.057224001735448837 -0.060352001339197159
  endloop
 endfacet
 facet normal -0.72196811284652107 -0.24459134786668388 -0.64725351801407149
  outer loop
   vertex -0.075179003179073334 0.0154600003734231 -0.07224699854850769
   vertex -0.099991999566555023 0.057224001735448837 -0.060352001339197159
   vertex -0.07405400276184082 0.072924003005027771 -0.095216996967792511
  endloop
 endfacet
 facet normal -0.34636621606604784 -0.033959191515305728 -0.93748451596797844
  outer loop
   vertex -0.12558099627494812 0.031049000099301338 -0.054189998656511307
   vertex -0.075179003179073334 0.0154600003734231 -0.07224699854850769
   vertex -0.094028003513813019 -0.020261999219655991 -0.063988998532295227
  endloop
 endfacet
 facet normal -0.55009729076187919 -0.18265483673779798 -0.81488047056775681
  outer loop
   vertex -0.12558099627494812 0.031049000099301338 -0.054189998656511307
   vertex -0.094028003513813019 -0.020261999219655991 -0.063988998532295227
   vertex -0.11069200187921524 -0.024093000218272209 -0.051881000399589539
  endloop
 endfacet
 facet normal -0.15239102094364468 0.3337499195122775 0.93026231137314264
  outer loop
   vertex -0.091164000332355499 0.0096209999173879623 -0.045499999076128006
   vertex -0.11266999691724777 0.0041299997828900814 -0.047053001821041107
   vertex -0.095802001655101776 -0.005518999882042408 -0.040828000754117966
  endloop
 endfacet
 facet normal 0.49647855274264474 0.22673785806391503 0.83791347428428253
  outer loop
   vertex -0.080792002379894257 0.031718000769615173 -0.057624999433755875
   vertex -0.10651499778032303 0.024731000885367393 -0.04049300029873848
   vertex -0.091164000332355499 0.0096209999173879623 -0.045499999076128006
  endloop
 endfacet
 facet normal 0.0093690037595186935 -0.30594652499716013 0.95200259748107641
  outer loop
   vertex -0.10651499778032303 0.024731000885367393 -0.04049300029873848
   vertex -0.11266999691724777 0.0041299997828900814 -0.047053001821041107
   vertex -0.091164000332355499 0.0096209999173879623 -0.045499999076128006
  endloop
 endfacet
 facet normal 0.26696014889257125 -0.64181071984035198 0.71889587479777994
  outer loop
   vertex -0.12063799798488617 -0.019938999786973 -0.044479001313447952
   vertex -0.11069200187921524 -0.024093000218272209 -0.051881000399589539
   vertex -0.095802001655101776 -0.005518999882042408 -0.040828000754117966
  endloop
 endfacet
 facet normal -0.018825184345813008 -0.21481040948753577 0.97647432142895774
  outer loop
   vertex -0.12063799798488617 -0.019938999786973 -0.044479001313447952
   vertex -0.095802001655101776 -0.005518999882042408 -0.040828000754117966
   vertex -0.12563200294971466 -0.010077999904751778 -0.042406000196933746
  endloop
 endfacet
 facet normal -0.10893489063400254 0.39739396587473991 0.91115927558737164
  outer loop
   vertex -0.095802001655101776 -0.005518999882042408 -0.040828000754117966
   vertex -0.11266999691724777 0.0041299997828900814 -0.047053001821041107
   vertex -0.12563200294971466 -0.010077999904751778 -0.042406000196933746
  endloop
 endfacet
 facet normal -0.73003125468487695 -0.40710727785266726 -0.54892443150456993
  outer loop
   vertex -0.12615300714969635 0.0012750000460073352 -0.050133001059293747
   vertex -0.11069200187921524 -0.024093000218272209 -0.051881000399589539
   vertex -0.12563200294971466 -0.010077999904751778 -0.042406000196933746
  endloop
 endfacet
 facet normal -0.63153019808179989 -0.16036034460875442 -0.7585869553239919
  outer loop
   vertex -0.12563200294971466 -0.010077999904751778 -0.042406000196933746
   vertex -0.11069200187921524 -0.024093000218272209 -0.051881000399589539
   vertex -0.12063799798488617 -0.019938999786973 -0.044479001313447952
  endloop
 endfacet
 facet normal -0.30789843232161779 -0.12264326543036799 -0.9434814173148649
  outer loop
   vertex -0.11069200187921524 -0.024093000218272209 -0.051881000399589539
   vertex -0.12615300714969635 0.0012750000460073352 -0.050133001059293747
   vertex -0.12558099627494812 0.031049000099301338 -0.054189998656511307
  endloop
 endfacet
 facet normal 0.93413727903660893 0.040111590266033871 0.3546527939272584
  outer loop
   vertex -0.075767002999782562 0.081004999577999115 -0.076434999704360962
   vertex -0.084582000970840454 0.052767001092433929 -0.050023000687360764
   vertex -0.080792002379894257 0.031718000769615173 -0.057624999433755875
  endloop
 endfacet
 facet normal 0.57889744995611891 -0.18276132839076295 0.79465466668178986
  outer loop
   vertex -0.080792002379894257 0.031718000769615173 -0.057624999433755875
   vertex -0.084582000970840454 0.052767001092433929 -0.050023000687360764
   vertex -0.10651499778032303 0.024731000885367393 -0.04049300029873848
  endloop
 endfacet
 facet normal 0.757746369403687 0.60878791735689008 0.23494193183804229
  outer loop
   vertex -0.075767002999782562 0.081004999577999115 -0.076434999704360962
   vertex -0.032203000038862228 0.042817000299692154 -0.11798600107431412
   vertex -0.051690999418497086 0.065471000969409943 -0.11383400112390518
  endloop
 endfacet
 facet normal 0.6212197539548493 0.7799462744510206 0.07595937247140519
  outer loop
   vertex -0.072555996477603912 0.080009996891021729 -0.092478998005390167
   vertex -0.075767002999782562 0.081004999577999115 -0.076434999704360962
   vertex -0.051690999418497086 0.065471000969409943 -0.11383400112390518
  endloop
 endfacet
 facet normal -0.093628338373608927 0.99236510715087167 -0.080282179609399512
  outer loop
   vertex -0.092867001891136169 0.080279998481273651 -0.065453998744487762
   vertex -0.075767002999782562 0.081004999577999115 -0.076434999704360962
   vertex -0.072555996477603912 0.080009996891021729 -0.092478998005390167
  endloop
 endfacet
 facet normal 0.21439350520030651 0.89423919595939916 0.39290162297681258
  outer loop
   vertex -0.075767002999782562 0.081004999577999115 -0.076434999704360962
   vertex -0.092867001891136169 0.080279998481273651 -0.065453998744487762
   vertex -0.085418000817298889 0.076531000435352325 -0.060986001044511795
  endloop
 endfacet
 facet normal 0.77237145132907725 0.28827627600998612 0.56598509685470444
  outer loop
   vertex -0.085418000817298889 0.076531000435352325 -0.060986001044511795
   vertex -0.084582000970840454 0.052767001092433929 -0.050023000687360764
   vertex -0.075767002999782562 0.081004999577999115 -0.076434999704360962
  endloop
 endfacet
 facet normal 0.74073431902062747 0.64208194665272 0.19759413555999317
  outer loop
   vertex -0.032203000038862228 0.042817000299692154 -0.11798600107431412
   vertex -0.011672999709844589 0.020719999447464943 -0.1231440007686615
   vertex -0.022800000384449959 0.036116998642683029 -0.13146400451660156
  endloop
 endfacet
 facet normal 0.75862841233070966 0.61129912071295622 0.2253803829532498
  outer loop
   vertex -0.032203000038862228 0.042817000299692154 -0.11798600107431412
   vertex -0.022800000384449959 0.036116998642683029 -0.13146400451660156
   vertex -0.051690999418497086 0.065471000969409943 -0.11383400112390518
  endloop
 endfacet
 facet normal 0.78729492089862529 0.61152379971486093 0.078774043374235797
  outer loop
   vertex -0.022800000384449959 0.036116998642683029 -0.13146400451660156
   vertex -0.011672999709844589 0.020719999447464943 -0.1231440007686615
   vertex -0.0037950000260025263 0.011366999708116055 -0.12927199900150299
  endloop
 endfacet
 facet normal 0.16856255329685552 0.042217134183759157 -0.98478646376123347
  outer loop
   vertex -0.022800000384449959 0.036116998642683029 -0.13146400451660156
   vertex -0.0037950000260025263 0.011366999708116055 -0.12927199900150299
   vertex -0.022141000255942345 0.01706399954855442 -0.1321679949760437
  endloop
 endfacet
 facet normal -0.11771325188595487 0.03260096612369251 -0.99251235122704429
  outer loop
   vertex -0.022800000384449959 0.036116998642683029 -0.13146400451660156
   vertex -0.022141000255942345 0.01706399954855442 -0.1321679949760437
   vertex -0.049975000321865082 0.045189999043941498 -0.12794299423694611
  endloop
 endfacet
 facet normal 0.0860719235348405 0.57385531679723256 -0.81442108234165977
  outer loop
   vertex -0.051690999418497086 0.065471000969409943 -0.11383400112390518
   vertex -0.022800000384449959 0.036116998642683029 -0.13146400451660156
   vertex -0.049975000321865082 0.045189999043941498 -0.12794299423694611
  endloop
 endfacet
 facet normal -0.4612013636624277 0.48008768326977258 -0.7461964342775832
  outer loop
   vertex -0.051690999418497086 0.065471000969409943 -0.11383400112390518
   vertex -0.049975000321865082 0.045189999043941498 -0.12794299423694611
   vertex -0.07405400276184082 0.072924003005027771 -0.095216996967792511
  endloop
 endfacet
 facet normal -0.50299155578353894 0.40197527848023884 -0.76512441491641703
  outer loop
   vertex -0.072555996477603912 0.080009996891021729 -0.092478998005390167
   vertex -0.051690999418497086 0.065471000969409943 -0.11383400112390518
   vertex -0.07405400276184082 0.072924003005027771 -0.095216996967792511
  endloop
 endfacet
 facet normal -0.63054716571677683 0.56034158248221611 -0.53705454355015514
  outer loop
   vertex -0.092867001891136169 0.080279998481273651 -0.065453998744487762
   vertex -0.07405400276184082 0.072924003005027771 -0.095216996967792511
   vertex -0.10901100188493729 0.066409997642040253 -0.060970999300479889
  endloop
 endfacet
 facet normal -0.52494901247313441 -0.5586747472533764 -0.64211452334054631
  outer loop
   vertex -0.07405400276184082 0.072924003005027771 -0.095216996967792511
   vertex -0.099991999566555023 0.057224001735448837 -0.060352001339197159
   vertex -0.10901100188493729 0.066409997642040253 -0.060970999300479889
  endloop
 endfacet
 facet normal -0.73998959015295596 0.37276946048576381 -0.55987349981438927
  outer loop
   vertex -0.072555996477603912 0.080009996891021729 -0.092478998005390167
   vertex -0.07405400276184082 0.072924003005027771 -0.095216996967792511
   vertex -0.092867001891136169 0.080279998481273651 -0.065453998744487762
  endloop
 endfacet
 facet normal -0.084483070839409272 -0.14933296128529391 -0.98517119193331482
  outer loop
   vertex -0.099991999566555023 0.057224001735448837 -0.060352001339197159
   vertex -0.12558099627494812 0.031049000099301338 -0.054189998656511307
   vertex -0.10901100188493729 0.066409997642040253 -0.060970999300479889
  endloop
 endfacet
 facet normal -0.70652943251149825 -0.082202382201176954 -0.70289325601789054
  outer loop
   vertex -0.12558099627494812 0.031049000099301338 -0.054189998656511307
   vertex -0.12615300714969635 0.0012750000460073352 -0.050133001059293747
   vertex -0.13682599365711212 0.027100000530481339 -0.042424999177455902
  endloop
 endfacet
 facet normal -0.76540072115148716 0.24450600176375775 -0.59529702767801962
  outer loop
   vertex -0.10901100188493729 0.066409997642040253 -0.060970999300479889
   vertex -0.12558099627494812 0.031049000099301338 -0.054189998656511307
   vertex -0.12295699864625931 0.056361999362707138 -0.04716699942946434
  endloop
 endfacet
 facet normal -0.74049042204821325 0.24985812541095317 -0.62389490462816199
  outer loop
   vertex -0.12558099627494812 0.031049000099301338 -0.054189998656511307
   vertex -0.13682599365711212 0.027100000530481339 -0.042424999177455902
   vertex -0.12295699864625931 0.056361999362707138 -0.04716699942946434
  endloop
 endfacet
 facet normal 0.2601574072955336 0.077447152289705362 0.96245522598793198
  outer loop
   vertex -0.12945599853992462 0.0052280002273619175 -0.042603999376296997
   vertex -0.12563200294971466 -0.010077999904751778 -0.042406000196933746
   vertex -0.11266999691724777 0.0041299997828900814 -0.047053001821041107
  endloop
 endfacet
 facet normal 0.59780038382631029 -0.39985310439666205 0.69480371041141409
  outer loop
   vertex -0.12411700189113617 0.016543999314308167 -0.030060000717639923
   vertex -0.11266999691724777 0.0041299997828900814 -0.047053001821041107
   vertex -0.10651499778032303 0.024731000885367393 -0.04049300029873848
  endloop
 endfacet
 facet normal 0.1189142965861919 -0.76189236604719646 0.63669412799743641
  outer loop
   vertex -0.12945599853992462 0.0052280002273619175 -0.042603999376296997
   vertex -0.11266999691724777 0.0041299997828900814 -0.047053001821041107
   vertex -0.12411700189113617 0.016543999314308167 -0.030060000717639923
  endloop
 endfacet
 facet normal 0.3964364018705484 0.0019287827279502374 0.91806016092036224
  outer loop
   vertex -0.084582000970840454 0.052767001092433929 -0.050023000687360764
   vertex -0.11831700056791306 0.036791000515222549 -0.035422001034021378
   vertex -0.10651499778032303 0.024731000885367393 -0.04049300029873848
  endloop
 endfacet
 facet normal 0.47411932687576125 0.095965373930950656 0.87521512263509693
  outer loop
   vertex -0.10651499778032303 0.024731000885367393 -0.04049300029873848
   vertex -0.11831700056791306 0.036791000515222549 -0.035422001034021378
   vertex -0.12411700189113617 0.016543999314308167 -0.030060000717639923
  endloop
 endfacet
 facet normal -0.92939422000456096 -0.23586886915273808 -0.28388776019180945
  outer loop
   vertex -0.12945599853992462 0.0052280002273619175 -0.042603999376296997
   vertex -0.12615300714969635 0.0012750000460073352 -0.050133001059293747
   vertex -0.12563200294971466 -0.010077999904751778 -0.042406000196933746
  endloop
 endfacet
 facet normal -0.81019919022440068 -0.5841238785733911 -0.048750042462583708
  outer loop
   vertex -0.13792599737644196 0.01680699922144413 -0.040576998144388199
   vertex -0.12615300714969635 0.0012750000460073352 -0.050133001059293747
   vertex -0.12945599853992462 0.0052280002273619175 -0.042603999376296997
  endloop
 endfacet
 facet normal -0.67544157757519552 -0.059775383090662181 -0.73498678822077868
  outer loop
   vertex -0.13682599365711212 0.027100000530481339 -0.042424999177455902
   vertex -0.12615300714969635 0.0012750000460073352 -0.050133001059293747
   vertex -0.13792599737644196 0.01680699922144413 -0.040576998144388199
  endloop
 endfacet
 facet normal 0.4117330707906765 0.39364908316351271 0.82189797282984312
  outer loop
   vertex -0.10183800011873245 0.064645998179912567 -0.047067999839782715
   vertex -0.084582000970840454 0.052767001092433929 -0.050023000687360764
   vertex -0.085418000817298889 0.076531000435352325 -0.060986001044511795
  endloop
 endfacet
 facet normal 0.30325869338409778 0.20927103675635525 0.92964498496032866
  outer loop
   vertex -0.11831700056791306 0.036791000515222549 -0.035422001034021378
   vertex -0.084582000970840454 0.052767001092433929 -0.050023000687360764
   vertex -0.10183800011873245 0.064645998179912567 -0.047067999839782715
  endloop
 endfacet
 facet normal -0.0019106272198351497 0.76448048243608702 0.64464404245902585
  outer loop
   vertex -0.10508000105619431 0.071714997291564941 -0.055332999676465988
   vertex -0.085418000817298889 0.076531000435352325 -0.060986001044511795
   vertex -0.092867001891136169 0.080279998481273651 -0.065453998744487762
  endloop
 endfacet
 facet normal -0.66994614274240405 0.71370536499173076 -0.20444270054613006
  outer loop
   vertex -0.10901100188493729 0.066409997642040253 -0.060970999300479889
   vertex -0.10508000105619431 0.071714997291564941 -0.055332999676465988
   vertex -0.092867001891136169 0.080279998481273651 -0.065453998744487762
  endloop
 endfacet
 facet normal 0.00065904596184419113 0.76007819699319534 0.64983128588426198
  outer loop
   vertex -0.10183800011873245 0.064645998179912567 -0.047067999839782715
   vertex -0.085418000817298889 0.076531000435352325 -0.060986001044511795
   vertex -0.10508000105619431 0.071714997291564941 -0.055332999676465988
  endloop
 endfacet
 facet normal -0.68722644098976715 0.70315421704593672 -0.18246634170458406
  outer loop
   vertex -0.10901100188493729 0.066409997642040253 -0.060970999300479889
   vertex -0.12295699864625931 0.056361999362707138 -0.04716699942946434
   vertex -0.10508000105619431 0.071714997291564941 -0.055332999676465988
  endloop
 endfacet
 facet normal -0.96070641961165082 0.15612454076818238 0.22949575832003286
  outer loop
   vertex -0.13682599365711212 0.027100000530481339 -0.042424999177455902
   vertex -0.13694900274276733 0.015754999592900276 -0.035222001373767853
   vertex -0.13452200591564178 0.032373998314142227 -0.036368001252412796
  endloop
 endfacet
 facet normal -0.90494549181266126 0.42475558036147154 -0.025619402798074144
  outer loop
   vertex -0.12295699864625931 0.056361999362707138 -0.04716699942946434
   vertex -0.13682599365711212 0.027100000530481339 -0.042424999177455902
   vertex -0.13452200591564178 0.032373998314142227 -0.036368001252412796
  endloop
 endfacet
 facet normal -0.96881384491386147 0.14021645117479767 0.20430144571971548
  outer loop
   vertex -0.13792599737644196 0.01680699922144413 -0.040576998144388199
   vertex -0.13694900274276733 0.015754999592900276 -0.035222001373767853
   vertex -0.13682599365711212 0.027100000530481339 -0.042424999177455902
  endloop
 endfacet
 facet normal -0.26889237810384392 0.67732316811755777 0.68478479460984976
  outer loop
   vertex -0.12295699864625931 0.056361999362707138 -0.04716699942946434
   vertex -0.10183800011873245 0.064645998179912567 -0.047067999839782715
   vertex -0.10508000105619431 0.071714997291564941 -0.055332999676465988
  endloop
 endfacet
 facet normal -0.17964888364349801 0.47453804218397971 0.86170756357701794
  outer loop
   vertex -0.12295699864625931 0.056361999362707138 -0.04716699942946434
   vertex -0.13452200591564178 0.032373998314142227 -0.036368001252412796
   vertex -0.11831700056791306 0.036791000515222549 -0.035422001034021378
  endloop
 endfacet
 facet normal -0.18915109198883143 0.47192573594636184 0.86110856699426541
  outer loop
   vertex -0.11831700056791306 0.036791000515222549 -0.035422001034021378
   vertex -0.10183800011873245 0.064645998179912567 -0.047067999839782715
   vertex -0.12295699864625931 0.056361999362707138 -0.04716699942946434
  endloop
 endfacet
 facet normal 0.45738181559224644 -0.74833827991601132 0.48040784087885746
  outer loop
   vertex -0.12411700189113617 0.016543999314308167 -0.030060000717639923
   vertex -0.13352300226688385 0.0063789999112486839 -0.036938998848199844
   vertex -0.12945599853992462 0.0052280002273619175 -0.042603999376296997
  endloop
 endfacet
 facet normal -0.45738181559224644 0.74833827991601132 -0.48040784087885746
  outer loop
   vertex -0.12945599853992462 0.0052280002273619175 -0.042603999376296997
   vertex -0.13352300226688385 0.0063789999112486839 -0.036938998848199844
   vertex -0.12411700189113617 0.016543999314308167 -0.030060000717639923
  endloop
 endfacet
 facet normal -0.75743916105377762 -0.47579412092625306 -0.44710834458122539
  outer loop
   vertex -0.13792599737644196 0.01680699922144413 -0.040576998144388199
   vertex -0.12945599853992462 0.0052280002273619175 -0.042603999376296997
   vertex -0.13352300226688385 0.0063789999112486839 -0.036938998848199844
  endloop
 endfacet
 facet normal -0.34198313128476526 -0.28872259422621754 0.89425209057622557
  outer loop
   vertex -0.12411700189113617 0.016543999314308167 -0.030060000717639923
   vertex -0.13694900274276733 0.015754999592900276 -0.035222001373767853
   vertex -0.13352300226688385 0.0063789999112486839 -0.036938998848199844
  endloop
 endfacet
 facet normal -0.37684209458989082 0.11838278568677138 0.91868142018772958
  outer loop
   vertex -0.12411700189113617 0.016543999314308167 -0.030060000717639923
   vertex -0.13452200591564178 0.032373998314142227 -0.036368001252412796
   vertex -0.13694900274276733 0.015754999592900276 -0.035222001373767853
  endloop
 endfacet
 facet normal -0.1342184086599543 0.28943788428955852 0.94774001177262401
  outer loop
   vertex -0.11831700056791306 0.036791000515222549 -0.035422001034021378
   vertex -0.13452200591564178 0.032373998314142227 -0.036368001252412796
   vertex -0.12411700189113617 0.016543999314308167 -0.030060000717639923
  endloop
 endfacet
 facet normal -0.92863426726147147 -0.35748934764117052 0.099195584532983841
  outer loop
   vertex -0.13352300226688385 0.0063789999112486839 -0.036938998848199844
   vertex -0.13694900274276733 0.015754999592900276 -0.035222001373767853
   vertex -0.13792599737644196 0.01680699922144413 -0.040576998144388199
  endloop
 endfacet
endsolid
